<svg width="4" height="6" viewBox="0 0 4 6" fill="none" xmlns="http://www.w3.org/2000/svg">
	<path fill-rule="evenodd" clip-rule="evenodd" d="M0.610062 0.607037C0.681507 0.538359 0.776761 0.5 0.875862 0.5C0.974963 0.5 1.07022 0.538359 1.14166 0.607037L3.38994 2.74149C3.42474 2.77496 3.45243 2.8151 3.47134 2.85952C3.49025 2.90394 3.5 2.95173 3.5 3.00001C3.5 3.04829 3.49025 3.09607 3.47134 3.14049C3.45243 3.18491 3.42474 3.22506 3.38994 3.25852L1.1417 5.393C1.07025 5.46168 0.974998 5.50004 0.875897 5.50004C0.776795 5.50004 0.681541 5.46168 0.610097 5.393C0.575295 5.35954 0.547607 5.31939 0.528695 5.27497C0.509782 5.23055 0.500034 5.18277 0.500034 5.13449C0.500034 5.08621 0.509782 5.03843 0.528695 4.994C0.547607 4.94958 0.575295 4.90944 0.610097 4.87597L2.5923 3.00001L0.610062 1.12407C0.57526 1.0906 0.547573 1.05046 0.528661 1.00604C0.509748 0.961615 0.5 0.913832 0.5 0.865552C0.5 0.817272 0.509748 0.769489 0.528661 0.725067C0.547573 0.680646 0.57526 0.6405 0.610062 0.607037Z" fill="#7B1FA2"/>
</svg>
