<svg width="22" height="24" viewBox="0 0 22 24" fill="none" xmlns="http://www.w3.org/2000/svg">
	<path d="M8.33301 10.5001C8.59822 10.5001 8.85258 10.6054 9.04011 10.793C9.22765 10.9805 9.33301 11.2349 9.33301 11.5001V16.1667C9.33301 16.432 9.22765 16.6863 9.04011 16.8739C8.85258 17.0614 8.59822 17.1667 8.33301 17.1667C8.06779 17.1667 7.81344 17.0614 7.6259 16.8739C7.43836 16.6863 7.33301 16.432 7.33301 16.1667V11.5001C7.33301 11.2349 7.43836 10.9805 7.6259 10.793C7.81344 10.6054 8.06779 10.5001 8.33301 10.5001Z" fill="#00A296"/>
	<path d="M13.6663 10.5001C13.9316 10.5001 14.1859 10.6054 14.3734 10.793C14.561 10.9805 14.6663 11.2349 14.6663 11.5001V16.1667C14.6663 16.432 14.561 16.6863 14.3734 16.8739C14.1859 17.0614 13.9316 17.1667 13.6663 17.1667C13.4011 17.1667 13.1468 17.0614 12.9592 16.8739C12.7717 16.6863 12.6663 16.432 12.6663 16.1667V11.5001C12.6663 11.2349 12.7717 10.9805 12.9592 10.793C13.1468 10.6054 13.4011 10.5001 13.6663 10.5001Z" fill="#00A296"/>
	<path fill-rule="evenodd" clip-rule="evenodd" d="M6.36618 1.60586C5.41898 2.32983 4.73901 3.34785 4.43301 4.5001H1.33301C1.06779 4.5001 0.813437 4.60545 0.625901 4.79299C0.438365 4.98053 0.333008 5.23488 0.333008 5.5001C0.333008 5.76531 0.438365 6.01967 0.625901 6.2072C0.813437 6.39474 1.06779 6.5001 1.33301 6.5001H2.33301V18.1668C2.33301 19.4928 2.85979 20.7646 3.79747 21.7023C4.73516 22.64 6.00693 23.1668 7.33301 23.1668H14.6663C15.323 23.1668 15.9731 23.0374 16.5798 22.7862C17.1864 22.5349 17.7376 22.1666 18.2019 21.7023C18.6662 21.238 19.0345 20.6868 19.2857 20.0802C19.537 19.4736 19.6663 18.8234 19.6663 18.1668V6.5001H20.6663C20.9316 6.5001 21.1859 6.39474 21.3734 6.2072C21.561 6.01967 21.6663 5.76531 21.6663 5.5001C21.6663 5.23488 21.561 4.98053 21.3734 4.79299C21.1859 4.60545 20.9316 4.5001 20.6663 4.5001H17.233C17.0022 3.37085 16.3885 2.35596 15.4957 1.62709C14.6028 0.898223 13.4856 0.500113 12.333 0.500097H9.66634C8.47417 0.492945 7.31337 0.881883 6.36618 1.60586ZM7.93156 3.04944C7.42408 3.40766 7.04025 3.91451 6.83301 4.5001H15.1623C14.9553 3.91516 14.5721 3.40876 14.0654 3.05059C13.5587 2.69243 12.9535 2.5001 12.333 2.5001H9.66634C9.04517 2.49928 8.43904 2.69121 7.93156 3.04944ZM17.6663 6.5001H4.33301V18.1668C4.33301 18.9624 4.64908 19.7255 5.21169 20.2881C5.7743 20.8507 6.53736 21.1668 7.33301 21.1668H14.6663C15.462 21.1668 16.2251 20.8507 16.7877 20.2881C17.3503 19.7255 17.6663 18.9624 17.6663 18.1668V6.5001Z" fill="#00A296"/>
</svg>
